<svg xmlns="http://www.w3.org/2000/svg" version="1.1" xmlns:xlink="http://www.w3.org/1999/xlink" xmlns:svgjs="http://svgjs.dev/svgjs" width="2000" height="1999" viewBox="0 0 2000 1999"><g transform="matrix(1,0,0,1,-0.431486880466764,-0.4312711370263287)"><svg viewBox="0 0 343 343" data-background-color="#000000" preserveAspectRatio="xMidYMid meet" height="1999" width="2000" xmlns="http://www.w3.org/2000/svg" xmlns:xlink="http://www.w3.org/1999/xlink"><g id="tight-bounds" transform="matrix(1,0,0,1,0.0740000000000407,0.07400000000001228)"><svg viewBox="0 0 342.85155851775386 342.85155851775386" height="342.85155851775386" width="342.85155851775386"><g><svg></svg></g><g><svg viewBox="0 0 342.85155851775386 342.85155851775386" height="342.85155851775386" width="342.85155851775386"><g><path d="M0 171.426c0-94.676 76.75-171.426 171.426-171.426 94.676 0 171.426 76.75 171.426 171.426 0 94.676-76.75 171.426-171.426 171.426-94.676 0-171.426-76.75-171.426-171.426zM171.426 327.061c85.955 0 155.635-69.68 155.635-155.635 0-85.955-69.68-155.635-155.635-155.635-85.955 0-155.635 69.68-155.635 155.635 0 85.955 69.68 155.635 155.635 155.635z" data-fill-palette-color="tertiary" fill="#ea0707" stroke="transparent"></path><ellipse rx="164.56874808852186" ry="164.56874808852186" cx="171.42577925887693" cy="171.42577925887693" fill="#ea0707" stroke="transparent" stroke-width="0" fill-opacity="1" data-fill-palette-color="tertiary"></ellipse></g><g transform="matrix(1,0,0,1,64.84655864529837,83.8743932126733)"><svg viewBox="0 0 213.1584412271571 175.10277209240726" height="175.10277209240726" width="213.1584412271571"><g><svg viewBox="0 0 213.1584412271571 175.10277209240726" height="175.10277209240726" width="213.1584412271571"><g><svg viewBox="0 0 213.1584412271571 175.10277209240726" height="175.10277209240726" width="213.1584412271571"><g id="textblocktransform"><svg viewBox="0 0 213.1584412271571 175.10277209240726" height="175.10277209240726" width="213.1584412271571" id="textblock"><g><svg viewBox="0 0 213.1584412271571 175.10277209240726" height="175.10277209240726" width="213.1584412271571"><g transform="matrix(1,0,0,1,0,0)"><svg width="213.1584412271571" viewBox="1.5 -37.5 45.64999999999999 37.5" height="175.10277209240726" data-palette-color="#ffffff"><path d="M14.05 0L14.75-18.2 15.1-18.2 19.75 0 28.9 0 33.5-18.2 33.9-18.2 34.6 0 47.15 0 44.9-37.5 29.2-37.5 24.55-18.4 24.1-18.4 19.45-37.5 3.8-37.5 1.5 0 14.05 0Z" opacity="1" transform="matrix(1,0,0,1,0,0)" fill="#ffffff" class="wordmark-text-0" data-fill-palette-color="quaternary" id="text-0"></path></svg></g></svg></g></svg></g></svg></g></svg></g></svg></g></svg></g><defs></defs></svg><rect width="342.85155851775386" height="342.85155851775386" fill="none" stroke="none" visibility="hidden"></rect></g></svg></g></svg>